<svg xmlns="http://www.w3.org/2000/svg" viewBox="0 0 32 32" width="32" height="32">
  <!-- Background circle with gradient effect -->
  <defs>
    <radialGradient id="bgGradient" cx="0.5" cy="0.5" r="0.5">
      <stop offset="0%" stop-color="#1e40af"/>
      <stop offset="100%" stop-color="#1e3a8a"/>
    </radialGradient>
  </defs>
  
  <!-- Background circle -->
  <circle cx="16" cy="16" r="15" fill="url(#bgGradient)" stroke="#ffffff" stroke-width="1"/>
  
  <!-- Central nucleus with inner detail -->
  <circle cx="16" cy="16" r="4" fill="#ffffff"/>
  <circle cx="16" cy="16" r="2" fill="#1e40af"/>
  
  <!-- Multiple electron orbits with varying opacity -->
  <circle cx="16" cy="16" r="7" fill="none" stroke="#ffffff" stroke-width="0.8" opacity="0.7"/>
  <circle cx="16" cy="16" r="11" fill="none" stroke="#ffffff" stroke-width="0.6" opacity="0.5"/>
  <circle cx="16" cy="16" r="14" fill="none" stroke="#ffffff" stroke-width="0.4" opacity="0.3"/>
  
  <!-- Electrons on outer orbit (larger) -->
  <circle cx="16" cy="2" r="1.8" fill="#ffffff"/>
  <circle cx="30" cy="16" r="1.8" fill="#ffffff"/>
  <circle cx="16" cy="30" r="1.8" fill="#ffffff"/>
  <circle cx="2" cy="16" r="1.8" fill="#ffffff"/>
  
  <!-- Electrons on middle orbit -->
  <circle cx="23" cy="9" r="1.2" fill="#ffffff" opacity="0.9"/>
  <circle cx="23" cy="23" r="1.2" fill="#ffffff" opacity="0.9"/>
  <circle cx="9" cy="23" r="1.2" fill="#ffffff" opacity="0.9"/>
  <circle cx="9" cy="9" r="1.2" fill="#ffffff" opacity="0.9"/>
  
  <!-- Electrons on inner orbit (smaller) -->
  <circle cx="20" cy="12" r="0.8" fill="#ffffff" opacity="0.8"/>
  <circle cx="20" cy="20" r="0.8" fill="#ffffff" opacity="0.8"/>
  <circle cx="12" cy="20" r="0.8" fill="#ffffff" opacity="0.8"/>
  <circle cx="12" cy="12" r="0.8" fill="#ffffff" opacity="0.8"/>
  
  <!-- Subtle connection lines from nucleus to outer electrons -->
  <line x1="16" y1="16" x2="16" y2="2" stroke="#ffffff" stroke-width="0.3" opacity="0.2"/>
  <line x1="16" y1="16" x2="30" y2="16" stroke="#ffffff" stroke-width="0.3" opacity="0.2"/>
  <line x1="16" y1="16" x2="16" y2="30" stroke="#ffffff" stroke-width="0.3" opacity="0.2"/>
  <line x1="16" y1="16" x2="2" y2="16" stroke="#ffffff" stroke-width="0.3" opacity="0.2"/>
  
  <!-- Additional orbital electrons for complexity -->
  <circle cx="26" cy="6" r="0.6" fill="#ffffff" opacity="0.6"/>
  <circle cx="26" cy="26" r="0.6" fill="#ffffff" opacity="0.6"/>
  <circle cx="6" cy="26" r="0.6" fill="#ffffff" opacity="0.6"/>
  <circle cx="6" cy="6" r="0.6" fill="#ffffff" opacity="0.6"/>
</svg>
